<?xml version="1.0" standalone="no"?>
<!DOCTYPE svg PUBLIC "-//W3C//DTD SVG 20010904//EN"
 "http://www.w3.org/TR/2001/REC-SVG-20010904/DTD/svg10.dtd">
<svg version="1.0" xmlns="http://www.w3.org/2000/svg"
 width="256.000000pt" height="256.000000pt" viewBox="0 0 256.000000 256.000000"
 preserveAspectRatio="xMidYMid meet">
<metadata>
Created by potrace 1.11, written by Peter Selinger 2001-2013
</metadata>
<g transform="translate(0.000000,256.000000) scale(0.100000,-0.100000)"
fill="#000000" stroke="none">
<path d="M97 2424 l-78 -57 6 -191 c3 -105 7 -276 10 -381 3 -104 7 -255 10
-335 6 -191 17 -596 18 -687 1 -58 5 -73 17 -73 57 -2 451 2 570 5 80 2 368 6
640 10 272 4 498 9 502 11 8 5 7 10 139 -496 11 -41 25 -92 30 -114 l10 -38
22 30 c12 16 36 47 54 68 45 57 293 365 328 410 17 21 60 76 97 122 l68 85 0
843 0 843 -1182 0 -1183 1 -78 -56z"/>
</g>
</svg>
